<svg width="215" height="221" viewBox="0 0 215 221" fill="none" xmlns="http://www.w3.org/2000/svg">
<path d="M211 110.5C211 132.991 204.081 154.904 191.233 173.099C178.386 191.294 160.271 204.838 139.483 211.788C118.696 218.737 96.304 218.737 75.5167 211.788C54.7294 204.838 36.614 191.294 23.7667 173.099C10.9195 154.904 3.99999 132.991 3.99999 110.5C3.99999 88.0094 10.9195 66.0961 23.7667 47.9009C36.614 29.7056 54.7295 16.1624 75.5168 9.21247C96.304 2.2625 118.696 2.2625 139.483 9.21248" stroke="white" stroke-width="7" stroke-linecap="round"/>
<path d="M194.303 111.188C194.303 122.918 192.057 134.533 187.695 145.37C183.333 156.207 176.938 166.054 168.878 174.348C160.817 182.643 151.248 189.222 140.716 193.711C130.184 198.2 118.896 200.51 107.496 200.51C96.0967 200.51 84.8087 198.2 74.2769 193.711C63.745 189.222 54.1756 182.642 46.1148 174.348C38.0541 166.054 31.66 156.207 27.2976 145.37C22.9351 134.533 20.6898 122.918 20.6898 111.187" stroke="white" stroke-width="7" stroke-linecap="round"/>
<path d="M177.613 110.5C177.613 119.974 175.8 129.356 172.276 138.109C168.753 146.862 163.588 154.815 157.078 161.514C150.567 168.214 142.838 173.528 134.331 177.153C125.825 180.779 116.708 182.645 107.5 182.645" stroke="white" stroke-width="7" stroke-linecap="round"/>
<path d="M160.252 111.187C160.252 120.835 157.784 130.312 153.097 138.668C148.409 147.024 141.667 153.962 133.547 158.787C125.428 163.612 116.217 166.153 106.841 166.154C97.4649 166.156 88.2535 163.618 80.1326 158.796C72.0117 153.974 65.2673 147.037 60.5771 138.683C55.8869 130.329 53.4162 120.852 53.4132 111.204C53.4103 101.556 55.8752 92.0773 60.5603 83.7202C65.2454 75.3632 71.9856 68.4222 80.1036 63.5947" stroke="white" stroke-width="7" stroke-linecap="round"/>
<path d="M144.226 110.5C144.226 115.463 143.276 120.377 141.43 124.962C139.584 129.547 136.879 133.713 133.469 137.222C130.059 140.731 126.01 143.515 121.554 145.414C117.098 147.313 112.323 148.29 107.5 148.29C102.677 148.29 97.9012 147.313 93.4454 145.414C88.9896 143.515 84.941 140.731 81.5307 137.222C78.1204 133.713 75.4152 129.547 73.5696 124.962C71.7239 120.377 70.774 115.463 70.774 110.5" stroke="white" stroke-width="7" stroke-linecap="round"/>
</svg>
