<svg width="67" height="69" viewBox="0 0 67 69" fill="none" xmlns="http://www.w3.org/2000/svg">
<path d="M4.2596 47.5155L4.82739 45.3168C4.09585 45.1282 3.44742 44.7019 2.98462 44.1042C2.52227 43.507 2.27132 42.7729 2.27132 42.017V5.67797C2.27132 4.77457 2.63025 3.90761 3.26902 3.26896C3.9078 2.6303 4.77475 2.27125 5.67804 2.27125H51.1018C52.0052 2.27125 52.8722 2.63018 53.5108 3.26896C54.1495 3.90773 54.5085 4.77469 54.5085 5.67797V6.81357H56.7797V5.67797C56.7777 4.17276 56.179 2.72945 55.1149 1.66485C54.0503 0.600736 52.607 0.00207652 51.1018 0H5.67797C4.17276 0.00202785 2.72945 0.600749 1.66485 1.66485C0.600736 2.72946 0.00207652 4.17276 0 5.67797V42.017C0 43.2763 0.418249 44.4996 1.18934 45.4948C1.96043 46.4905 3.04029 47.2012 4.25947 47.5155L4.2596 47.5155Z" fill="white"/>
<path d="M4.54248 4.54196H6.81367V6.81315H4.54248V4.54196Z" fill="white"/>
<path d="M9.08484 4.54196H11.356V6.81315H9.08484V4.54196Z" fill="white"/>
<path d="M13.6273 4.54196H15.8985V6.81315H13.6273V4.54196Z" fill="white"/>
<path d="M57.2458 48.8302H59.0516V46.559H57.7346C58.1619 43.8102 57.8324 40.9966 56.7804 38.4212V27.2539H54.5093V34.4852C53.835 33.6239 53.074 32.834 52.2381 32.1278V22.7115H49.9669V30.5405C49.2399 30.1187 48.4805 29.7562 47.6957 29.4556V18.1691H45.4245V28.7665C44.6762 28.6048 43.9173 28.4984 43.1533 28.4472V20.4403H40.8821V28.4472C40.1181 28.4984 39.3593 28.6048 38.6109 28.7665V24.9826H36.3397V29.4556C35.555 29.7562 34.7956 30.1187 34.0685 30.5405V23.8471H31.7974V32.1278C30.9614 32.834 30.2004 33.6238 29.5262 34.4852V26.1183H27.255V38.4212C26.203 40.9966 25.8734 43.8102 26.3009 46.559H11.3564V48.8302H26.7889C28.2412 53.7305 31.966 57.6306 36.7943 59.3075C41.6226 60.9845 46.963 60.2327 51.1404 57.2882L61.6549 67.8026C62.0985 68.2457 62.8173 68.2457 63.2609 67.8026L66.6677 64.3959C67.1108 63.9523 67.1108 63.2334 66.6677 62.7898L55.8968 52.0189H55.8963C56.4621 51.009 56.9148 49.9394 57.2454 48.8302H57.2458ZM28.39 44.2878C28.39 40.6736 29.8257 37.2075 32.3813 34.652C34.937 32.0964 38.403 30.6606 42.0171 30.6606C45.6313 30.6606 49.0974 32.0963 51.653 34.652C54.2085 37.2076 55.6443 40.6736 55.6443 44.2878C55.6443 47.902 54.2086 51.368 51.653 53.9236C49.0973 56.4791 45.6313 57.9149 42.0171 57.9149C38.404 57.9109 34.9405 56.4741 32.3853 53.9196C29.8307 51.3644 28.394 47.9009 28.39 44.2878ZM64.2592 63.5929L62.458 65.3941L52.9054 55.8415C53.5243 55.2565 54.0957 54.6238 54.6143 53.9485L64.2592 63.5929Z" fill="white"/>
<path d="M42.0172 32.9318C39.0053 32.9318 36.1172 34.1283 33.9874 36.258C31.8577 38.3878 30.6613 41.2759 30.6613 44.2878C30.6613 47.2996 31.8577 50.1878 33.9874 52.3175C36.1172 54.4473 39.0053 55.6437 42.0172 55.6437C45.0291 55.6437 47.9172 54.4473 50.047 52.3175C52.1767 50.1878 53.3731 47.2996 53.3731 44.2878C53.3696 41.277 52.1722 38.3903 50.0435 36.2615C47.9148 34.1327 45.028 32.9353 42.0172 32.9318ZM36.3392 37.2075V44.2878H38.6104V35.8717C39.3384 35.5771 40.1019 35.3789 40.8816 35.2816V44.2878H43.1528V35.2816C43.9325 35.3789 44.696 35.5771 45.424 35.8717V44.2878H47.6952V37.2075C49.0665 38.2949 50.0906 39.759 50.6427 41.4199C51.1947 43.0812 51.2505 44.8667 50.8034 46.559H33.2309C32.7837 44.8667 32.8395 43.0812 33.3916 41.4199C33.9436 39.759 34.9678 38.295 36.339 37.2075H36.3392ZM42.0172 53.3719C38.7756 53.3678 35.7821 51.6366 34.1614 48.8295H49.8728C48.2521 51.6366 45.2584 53.3679 42.0169 53.3719H42.0172Z" fill="white"/>
<path d="M6.81372 14.7623V51.1013C6.81575 52.6066 7.41447 54.0499 8.47857 55.1145C9.54318 56.1786 10.9865 56.7772 12.4917 56.7793H27.2544V54.5081H12.4917C11.5883 54.5081 10.7213 54.1492 10.0827 53.5104C9.44402 52.8717 9.08498 52.0047 9.08498 51.1014V14.7624C9.08498 13.859 9.4439 12.992 10.0827 12.3534C10.7215 11.7147 11.5884 11.3557 12.4917 11.3557H57.9155C58.8189 11.3557 59.6858 11.7146 60.3245 12.3534C60.9632 12.9921 61.3222 13.8591 61.3222 14.7624V51.1014C61.3222 51.9313 61.019 52.7323 60.4705 53.3543L62.1739 54.8569C63.089 53.8197 63.5938 52.4844 63.5935 51.1013V14.7622C63.5914 13.257 62.9927 11.8137 61.9286 10.7491C60.864 9.68501 59.4207 9.08635 57.9155 9.08428H12.4917C10.9865 9.0863 9.54317 9.68503 8.47857 10.7491C7.41446 11.8137 6.8158 13.257 6.81372 14.7622V14.7623Z" fill="white"/>
<path d="M11.3561 13.6267H13.6273V15.8979H11.3561V13.6267Z" fill="white"/>
<path d="M15.8984 13.6267H18.1696V15.8979H15.8984V13.6267Z" fill="white"/>
<path d="M20.4408 13.6267H22.712V15.8979H20.4408V13.6267Z" fill="white"/>
<path d="M13.6273 37.4742H15.8985V44.2878H13.6273V37.4742Z" fill="white"/>
<path d="M18.1697 30.6606H20.4409V44.2878H18.1697V30.6606Z" fill="white"/>
<path d="M22.712 34.0674H24.9832V44.2878H22.712V34.0674Z" fill="white"/>
</svg>
