<svg width="56" height="64" viewBox="0 0 56 64" fill="none" xmlns="http://www.w3.org/2000/svg">
<path d="M7.13318 31.5421C7.13318 32.2297 7.73509 32.831 8.42212 32.831H33.3464C34.034 32.831 34.6353 32.2291 34.6353 31.5421C34.6353 30.8544 34.0334 30.2531 33.3464 30.2531H8.42212C7.64875 30.2531 7.13318 30.8544 7.13318 31.5421Z" fill="white"/>
<path d="M43.918 32.8313H46.4101C47.0977 32.8313 47.699 32.2293 47.699 31.5423C47.699 30.8547 47.0971 30.2534 46.4101 30.2534H43.918C43.2303 30.2534 42.629 30.8553 42.629 31.5423C42.629 32.23 43.2303 32.8313 43.918 32.8313Z" fill="white"/>
<path d="M50.1061 17.8767C53.2001 17.8767 55.6922 15.3846 55.6922 12.2905V5.58677C55.6922 2.49272 53.2001 0.00059951 50.1061 0.00059951L5.58617 0C2.49212 0 0 2.49212 0 5.58617V12.2899C0 15.384 2.49212 17.8761 5.58617 17.8761H26.5569V22.6033L5.58617 22.6039C2.49212 22.6039 0 25.096 0 28.19V34.8938C0 37.9878 2.49212 40.48 5.58617 40.48H26.5569V45.2071H5.58617C2.49212 45.2071 0 47.6993 0 50.7933V57.4971C0 60.5911 2.49212 63.0832 5.58617 63.0832H50.192C53.2861 63.0832 55.7782 60.5911 55.7782 57.4971V50.7933C55.7782 47.6993 53.2861 45.2071 50.192 45.2071H29.1353V40.48H50.1061C53.2001 40.48 55.6922 37.9878 55.6922 34.8938V28.19C55.6922 25.096 53.2001 22.6039 50.1061 22.6039H29.1353V17.8767H50.1061ZM53.1145 50.7939V57.4977C53.1145 59.1308 51.7392 60.5061 50.1061 60.5061L5.58617 60.5055C3.95304 60.5055 2.57776 59.1302 2.57776 57.4971V50.7933C2.57776 49.1602 3.95303 47.7849 5.58617 47.7849H50.192C51.8245 47.7855 53.114 49.1608 53.114 50.7938L53.1145 50.7939ZM53.1145 28.1902V34.894C53.1145 36.5271 51.7392 37.9024 50.1061 37.9024H5.58617C3.95304 37.9024 2.57776 36.5271 2.57776 34.894V28.1902C2.57776 26.5571 3.95303 25.1818 5.58617 25.1818H50.192C51.8245 25.1818 53.114 26.557 53.114 28.1902H53.1145ZM2.57837 12.2902V5.58646C2.57837 3.95334 3.95364 2.57805 5.58678 2.57805H50.1926C51.8257 2.57805 53.201 3.95332 53.201 5.58646V12.2902C53.201 13.9233 51.8258 15.2986 50.1926 15.2986H5.58678C3.86802 15.2986 2.57837 13.9234 2.57837 12.2902Z" fill="white"/>
<path d="M34.6358 8.93834C34.6358 8.2507 34.0339 7.6494 33.3469 7.6494H8.42261C7.73497 7.6494 7.13367 8.25131 7.13367 8.93834C7.13367 9.62598 7.73558 10.2273 8.42261 10.2273H33.3469C34.0345 10.2279 34.6358 9.62597 34.6358 8.93834Z" fill="white"/>
<path d="M43.918 10.2275H46.4101C47.0977 10.2275 47.699 9.62562 47.699 8.93859C47.699 8.25095 47.0971 7.64965 46.4101 7.64965H43.918C43.2303 7.64965 42.629 8.25156 42.629 8.93859C42.629 9.62563 43.2303 10.2275 43.918 10.2275Z" fill="white"/>
<path d="M7.13318 54.1458C7.13318 54.8334 7.73509 55.4347 8.42212 55.4347H33.3464C34.034 55.4347 34.6353 54.8328 34.6353 54.1458C34.6353 53.4582 34.0334 52.8569 33.3464 52.8569H8.42212C7.64875 52.8563 7.13318 53.4582 7.13318 54.1458Z" fill="white"/>
<path d="M43.918 55.435H46.4101C47.0977 55.435 47.699 54.8331 47.699 54.146C47.699 53.4584 47.0971 52.8571 46.4101 52.8571H43.918C43.2303 52.8571 42.629 53.459 42.629 54.146C42.629 54.8337 43.2303 55.435 43.918 55.435Z" fill="white"/>
</svg>
