<svg width="61" height="74" viewBox="0 0 61 74" fill="none" xmlns="http://www.w3.org/2000/svg">
<mask id="path-1-outside-1_527_1063" maskUnits="userSpaceOnUse" x="0" y="3.77992" width="61" height="71" fill="black">
<rect fill="white" y="3.77992" width="61" height="71"/>
<path d="M54.5703 73.3878H6.42951C4.99232 73.3878 3.61352 72.8178 2.59521 71.8025C1.57749 70.7876 1.00415 69.4107 1 67.9729V10.1942C1.00405 8.75698 1.578 7.37996 2.59566 6.36462C3.61338 5.34978 4.99218 4.77992 6.42936 4.77992H16.3723C16.5725 4.77992 16.764 4.85976 16.9051 5.00094C17.0469 5.14211 17.1262 5.3342 17.1262 5.53382V7.68269C17.1267 8.193 17.5404 8.60669 18.0507 8.60669H42.0693C42.5796 8.60611 42.9927 8.19242 42.9933 7.68269V5.53382C42.9933 5.11782 43.3306 4.77993 43.7472 4.77993H54.5706C56.0078 4.77993 57.3866 5.34984 58.4043 6.36463C59.4221 7.38004 59.996 8.75701 60 10.1942V67.9729C59.9959 69.4107 59.4226 70.7877 58.4048 71.8025C57.3865 72.8179 56.0077 73.3878 54.5705 73.3878L54.5703 73.3878ZM6.42951 6.28804C5.39154 6.28688 4.39587 6.69709 3.66106 7.42957C2.92569 8.16205 2.51143 9.15602 2.50854 10.194V67.9728C2.51085 69.0107 2.92569 70.0054 3.66048 70.7378C4.39585 71.4703 5.39167 71.8811 6.42952 71.8799H54.5703C55.6083 71.8811 56.604 71.4703 57.3394 70.7378C58.0742 70.0053 58.489 69.0108 58.4913 67.9728V10.194C58.4884 9.15605 58.0742 8.16201 57.3388 7.42957C56.604 6.69709 55.6082 6.28688 54.5703 6.28804H44.5008V7.68242C44.5002 8.32697 44.2439 8.94546 43.788 9.40131C43.3321 9.85717 42.7141 10.1135 42.0691 10.1147H18.0505C17.4054 10.1141 16.7869 9.85781 16.331 9.40131C15.8751 8.9454 15.6188 8.32689 15.6182 7.68242V6.28804H6.42951Z"/>
</mask>
<path d="M54.5703 73.3878H6.42951C4.99232 73.3878 3.61352 72.8178 2.59521 71.8025C1.57749 70.7876 1.00415 69.4107 1 67.9729V10.1942C1.00405 8.75698 1.578 7.37996 2.59566 6.36462C3.61338 5.34978 4.99218 4.77992 6.42936 4.77992H16.3723C16.5725 4.77992 16.764 4.85976 16.9051 5.00094C17.0469 5.14211 17.1262 5.3342 17.1262 5.53382V7.68269C17.1267 8.193 17.5404 8.60669 18.0507 8.60669H42.0693C42.5796 8.60611 42.9927 8.19242 42.9933 7.68269V5.53382C42.9933 5.11782 43.3306 4.77993 43.7472 4.77993H54.5706C56.0078 4.77993 57.3866 5.34984 58.4043 6.36463C59.4221 7.38004 59.996 8.75701 60 10.1942V67.9729C59.9959 69.4107 59.4226 70.7877 58.4048 71.8025C57.3865 72.8179 56.0077 73.3878 54.5705 73.3878L54.5703 73.3878ZM6.42951 6.28804C5.39154 6.28688 4.39587 6.69709 3.66106 7.42957C2.92569 8.16205 2.51143 9.15602 2.50854 10.194V67.9728C2.51085 69.0107 2.92569 70.0054 3.66048 70.7378C4.39585 71.4703 5.39167 71.8811 6.42952 71.8799H54.5703C55.6083 71.8811 56.604 71.4703 57.3394 70.7378C58.0742 70.0053 58.489 69.0108 58.4913 67.9728V10.194C58.4884 9.15605 58.0742 8.16201 57.3388 7.42957C56.604 6.69709 55.6082 6.28688 54.5703 6.28804H44.5008V7.68242C44.5002 8.32697 44.2439 8.94546 43.788 9.40131C43.3321 9.85717 42.7141 10.1135 42.0691 10.1147H18.0505C17.4054 10.1141 16.7869 9.85781 16.331 9.40131C15.8751 8.9454 15.6188 8.32689 15.6182 7.68242V6.28804H6.42951Z" fill="white"/>
<path d="M54.5703 73.3878H6.42951C4.99232 73.3878 3.61352 72.8178 2.59521 71.8025C1.57749 70.7876 1.00415 69.4107 1 67.9729V10.1942C1.00405 8.75698 1.578 7.37996 2.59566 6.36462C3.61338 5.34978 4.99218 4.77992 6.42936 4.77992H16.3723C16.5725 4.77992 16.764 4.85976 16.9051 5.00094C17.0469 5.14211 17.1262 5.3342 17.1262 5.53382V7.68269C17.1267 8.193 17.5404 8.60669 18.0507 8.60669H42.0693C42.5796 8.60611 42.9927 8.19242 42.9933 7.68269V5.53382C42.9933 5.11782 43.3306 4.77993 43.7472 4.77993H54.5706C56.0078 4.77993 57.3866 5.34984 58.4043 6.36463C59.4221 7.38004 59.996 8.75701 60 10.1942V67.9729C59.9959 69.4107 59.4226 70.7877 58.4048 71.8025C57.3865 72.8179 56.0077 73.3878 54.5705 73.3878L54.5703 73.3878ZM6.42951 6.28804C5.39154 6.28688 4.39587 6.69709 3.66106 7.42957C2.92569 8.16205 2.51143 9.15602 2.50854 10.194V67.9728C2.51085 69.0107 2.92569 70.0054 3.66048 70.7378C4.39585 71.4703 5.39167 71.8811 6.42952 71.8799H54.5703C55.6083 71.8811 56.604 71.4703 57.3394 70.7378C58.0742 70.0053 58.489 69.0108 58.4913 67.9728V10.194C58.4884 9.15605 58.0742 8.16201 57.3388 7.42957C56.604 6.69709 55.6082 6.28688 54.5703 6.28804H44.5008V7.68242C44.5002 8.32697 44.2439 8.94546 43.788 9.40131C43.3321 9.85717 42.7141 10.1135 42.0691 10.1147H18.0505C17.4054 10.1141 16.7869 9.85781 16.331 9.40131C15.8751 8.9454 15.6188 8.32689 15.6182 7.68242V6.28804H6.42951Z" stroke="white" mask="url(#path-1-outside-1_527_1063)"/>
<mask id="path-2-outside-2_527_1063" maskUnits="userSpaceOnUse" x="6.95361" y="13.2295" width="16" height="16" fill="black">
<rect fill="white" x="6.95361" y="13.2295" width="16" height="16"/>
<path d="M15.1373 28.5973C13.232 28.5973 11.4049 27.8406 10.0573 26.493C8.71037 25.1461 7.95361 23.3183 7.95361 21.4131C7.95361 19.5079 8.7104 17.6807 10.0573 16.3337C11.4048 14.9862 13.232 14.2295 15.1373 14.2295C17.0425 14.2295 18.8696 14.9862 20.2172 16.3337C21.5642 17.6807 22.3209 19.5079 22.3209 21.4131C22.3192 23.3177 21.5618 25.1439 20.2148 26.4907C18.8679 27.8375 17.0419 28.595 15.1373 28.5973V28.5973ZM15.1373 15.7379C13.6318 15.7379 12.1883 16.3355 11.1242 17.4002C10.0596 18.4648 9.46129 19.9084 9.46129 21.4132C9.46129 22.9187 10.0595 24.3622 11.1242 25.4269C12.1882 26.4915 13.6318 27.0892 15.1373 27.0892C16.6427 27.0892 18.0863 26.4915 19.1509 25.4269C20.2149 24.3623 20.8132 22.9187 20.8132 21.4132C20.8109 19.909 20.2127 18.4665 19.1487 17.4031C18.0847 16.3391 16.6423 15.7408 15.1374 15.7392L15.1373 15.7379Z"/>
</mask>
<path d="M15.1373 28.5973C13.232 28.5973 11.4049 27.8406 10.0573 26.493C8.71037 25.1461 7.95361 23.3183 7.95361 21.4131C7.95361 19.5079 8.7104 17.6807 10.0573 16.3337C11.4048 14.9862 13.232 14.2295 15.1373 14.2295C17.0425 14.2295 18.8696 14.9862 20.2172 16.3337C21.5642 17.6807 22.3209 19.5079 22.3209 21.4131C22.3192 23.3177 21.5618 25.1439 20.2148 26.4907C18.8679 27.8375 17.0419 28.595 15.1373 28.5973V28.5973ZM15.1373 15.7379C13.6318 15.7379 12.1883 16.3355 11.1242 17.4002C10.0596 18.4648 9.46129 19.9084 9.46129 21.4132C9.46129 22.9187 10.0595 24.3622 11.1242 25.4269C12.1882 26.4915 13.6318 27.0892 15.1373 27.0892C16.6427 27.0892 18.0863 26.4915 19.1509 25.4269C20.2149 24.3623 20.8132 22.9187 20.8132 21.4132C20.8109 19.909 20.2127 18.4665 19.1487 17.4031C18.0847 16.3391 16.6423 15.7408 15.1374 15.7392L15.1373 15.7379Z" fill="white"/>
<path d="M15.1373 28.5973C13.232 28.5973 11.4049 27.8406 10.0573 26.493C8.71037 25.1461 7.95361 23.3183 7.95361 21.4131C7.95361 19.5079 8.7104 17.6807 10.0573 16.3337C11.4048 14.9862 13.232 14.2295 15.1373 14.2295C17.0425 14.2295 18.8696 14.9862 20.2172 16.3337C21.5642 17.6807 22.3209 19.5079 22.3209 21.4131C22.3192 23.3177 21.5618 25.1439 20.2148 26.4907C18.8679 27.8375 17.0419 28.595 15.1373 28.5973V28.5973ZM15.1373 15.7379C13.6318 15.7379 12.1883 16.3355 11.1242 17.4002C10.0596 18.4648 9.46129 19.9084 9.46129 21.4132C9.46129 22.9187 10.0595 24.3622 11.1242 25.4269C12.1882 26.4915 13.6318 27.0892 15.1373 27.0892C16.6427 27.0892 18.0863 26.4915 19.1509 25.4269C20.2149 24.3623 20.8132 22.9187 20.8132 21.4132C20.8109 19.909 20.2127 18.4665 19.1487 17.4031C18.0847 16.3391 16.6423 15.7408 15.1374 15.7392L15.1373 15.7379Z" stroke="white" stroke-width="0.8" mask="url(#path-2-outside-2_527_1063)"/>
<path d="M14.2486 23.7954C14.0484 23.7954 13.8569 23.7161 13.7151 23.5744L12.2392 22.0996H12.2397C12.0986 21.9578 12.0187 21.7663 12.0193 21.5661C12.0193 21.3659 12.0991 21.1739 12.2403 21.0327C12.5354 20.7382 13.0127 20.7388 13.3072 21.0333L14.2497 21.9752L16.969 19.2559C17.2646 18.9707 17.735 18.9747 18.0261 19.2652C18.3171 19.5562 18.3211 20.0266 18.0353 20.3222L14.7831 23.5744C14.6414 23.7168 14.4493 23.7966 14.2485 23.7954L14.2486 23.7954Z" fill="white"/>
<mask id="path-4-outside-3_527_1063" maskUnits="userSpaceOnUse" x="25.9347" y="16.7879" width="28" height="4" fill="black">
<rect fill="white" x="25.9347" y="16.7879" width="28" height="4"/>
<path d="M52.2922 19.2956H27.6886C27.272 19.2956 26.9347 18.9583 26.9347 18.5417C26.9347 18.1252 27.272 17.7879 27.6886 17.7879H52.2922C52.7082 17.7879 53.0461 18.1252 53.0461 18.5417C53.0461 18.9583 52.7082 19.2956 52.2922 19.2956Z"/>
</mask>
<path d="M52.2922 19.2956H27.6886C27.272 19.2956 26.9347 18.9583 26.9347 18.5417C26.9347 18.1252 27.272 17.7879 27.6886 17.7879H52.2922C52.7082 17.7879 53.0461 18.1252 53.0461 18.5417C53.0461 18.9583 52.7082 19.2956 52.2922 19.2956Z" fill="white"/>
<path d="M52.2922 19.2956H27.6886C27.272 19.2956 26.9347 18.9583 26.9347 18.5417C26.9347 18.1252 27.272 17.7879 27.6886 17.7879H52.2922C52.7082 17.7879 53.0461 18.1252 53.0461 18.5417C53.0461 18.9583 52.7082 19.2956 52.2922 19.2956Z" stroke="white" mask="url(#path-4-outside-3_527_1063)"/>
<mask id="path-5-outside-4_527_1063" maskUnits="userSpaceOnUse" x="25.9347" y="22.5348" width="28" height="4" fill="black">
<rect fill="white" x="25.9347" y="22.5348" width="28" height="4"/>
<path d="M52.2922 25.0425H27.6886C27.272 25.0425 26.9347 24.7052 26.9347 24.2887C26.9347 23.8721 27.272 23.5348 27.6886 23.5348H52.2922C52.7082 23.5348 53.0461 23.8721 53.0461 24.2887C53.0461 24.7052 52.7082 25.0425 52.2922 25.0425Z"/>
</mask>
<path d="M52.2922 25.0425H27.6886C27.272 25.0425 26.9347 24.7052 26.9347 24.2887C26.9347 23.8721 27.272 23.5348 27.6886 23.5348H52.2922C52.7082 23.5348 53.0461 23.8721 53.0461 24.2887C53.0461 24.7052 52.7082 25.0425 52.2922 25.0425Z" fill="white"/>
<path d="M52.2922 25.0425H27.6886C27.272 25.0425 26.9347 24.7052 26.9347 24.2887C26.9347 23.8721 27.272 23.5348 27.6886 23.5348H52.2922C52.7082 23.5348 53.0461 23.8721 53.0461 24.2887C53.0461 24.7052 52.7082 25.0425 52.2922 25.0425Z" stroke="white" mask="url(#path-5-outside-4_527_1063)"/>
<mask id="path-6-outside-5_527_1063" maskUnits="userSpaceOnUse" x="6.95361" y="32.6357" width="16" height="16" fill="black">
<rect fill="white" x="6.95361" y="32.6357" width="16" height="16"/>
<path d="M15.1373 48.0036C13.232 48.0036 11.4049 47.2468 10.0573 45.8993C8.71037 44.5518 7.95361 42.7245 7.95361 40.8193C7.95361 38.9141 8.7104 37.0869 10.0579 35.7394C11.4054 34.3924 13.2326 33.6357 15.1379 33.6357C17.0431 33.6357 18.8702 34.393 20.2178 35.7406C21.5647 37.0875 22.3215 38.9153 22.3209 40.8205C22.3192 42.7251 21.5618 44.5513 20.2148 45.8975C18.8679 47.2444 17.0419 48.0018 15.1373 48.0036V48.0036ZM15.1373 35.1447C13.6318 35.1447 12.1883 35.7429 11.1242 36.807C10.0596 37.8716 9.46129 39.3152 9.46129 40.8206C9.46129 42.3255 10.0595 43.7697 11.1242 44.8337C12.1882 45.8983 13.6318 46.496 15.1373 46.496C16.6427 46.496 18.0863 45.8984 19.1509 44.8337C20.2149 43.7697 20.8132 42.3255 20.8132 40.8206C20.8115 39.3158 20.2132 37.8728 19.1493 36.8088C18.0853 35.7448 16.6423 35.1465 15.1374 35.1448L15.1373 35.1447Z"/>
</mask>
<path d="M15.1373 48.0036C13.232 48.0036 11.4049 47.2468 10.0573 45.8993C8.71037 44.5518 7.95361 42.7245 7.95361 40.8193C7.95361 38.9141 8.7104 37.0869 10.0579 35.7394C11.4054 34.3924 13.2326 33.6357 15.1379 33.6357C17.0431 33.6357 18.8702 34.393 20.2178 35.7406C21.5647 37.0875 22.3215 38.9153 22.3209 40.8205C22.3192 42.7251 21.5618 44.5513 20.2148 45.8975C18.8679 47.2444 17.0419 48.0018 15.1373 48.0036V48.0036ZM15.1373 35.1447C13.6318 35.1447 12.1883 35.7429 11.1242 36.807C10.0596 37.8716 9.46129 39.3152 9.46129 40.8206C9.46129 42.3255 10.0595 43.7697 11.1242 44.8337C12.1882 45.8983 13.6318 46.496 15.1373 46.496C16.6427 46.496 18.0863 45.8984 19.1509 44.8337C20.2149 43.7697 20.8132 42.3255 20.8132 40.8206C20.8115 39.3158 20.2132 37.8728 19.1493 36.8088C18.0853 35.7448 16.6423 35.1465 15.1374 35.1448L15.1373 35.1447Z" fill="white"/>
<path d="M15.1373 48.0036C13.232 48.0036 11.4049 47.2468 10.0573 45.8993C8.71037 44.5518 7.95361 42.7245 7.95361 40.8193C7.95361 38.9141 8.7104 37.0869 10.0579 35.7394C11.4054 34.3924 13.2326 33.6357 15.1379 33.6357C17.0431 33.6357 18.8702 34.393 20.2178 35.7406C21.5647 37.0875 22.3215 38.9153 22.3209 40.8205C22.3192 42.7251 21.5618 44.5513 20.2148 45.8975C18.8679 47.2444 17.0419 48.0018 15.1373 48.0036V48.0036ZM15.1373 35.1447C13.6318 35.1447 12.1883 35.7429 11.1242 36.807C10.0596 37.8716 9.46129 39.3152 9.46129 40.8206C9.46129 42.3255 10.0595 43.7697 11.1242 44.8337C12.1882 45.8983 13.6318 46.496 15.1373 46.496C16.6427 46.496 18.0863 45.8984 19.1509 44.8337C20.2149 43.7697 20.8132 42.3255 20.8132 40.8206C20.8115 39.3158 20.2132 37.8728 19.1493 36.8088C18.0853 35.7448 16.6423 35.1465 15.1374 35.1448L15.1373 35.1447Z" stroke="white" stroke-width="0.8" mask="url(#path-6-outside-5_527_1063)"/>
<path d="M14.2485 43.2001C14.0483 43.2001 13.8568 43.1203 13.7151 42.9791L12.2391 41.5043H12.2397C11.9446 41.2092 11.9446 40.7313 12.2391 40.4363C12.5342 40.1412 13.0121 40.1406 13.3072 40.4357L14.2497 41.3776L16.9689 38.6584C17.2646 38.3725 17.735 38.3766 18.026 38.6676C18.317 38.9586 18.3211 39.429 18.0353 39.7247L14.7831 42.9769C14.6419 43.1198 14.4492 43.2002 14.2485 43.2002L14.2485 43.2001Z" fill="white"/>
<mask id="path-8-outside-6_527_1063" maskUnits="userSpaceOnUse" x="25.9347" y="36.1935" width="28" height="4" fill="black">
<rect fill="white" x="25.9347" y="36.1935" width="28" height="4"/>
<path d="M52.2922 38.7018H27.6886C27.272 38.7018 26.9347 38.364 26.9347 37.9474C26.9347 37.5308 27.272 37.1935 27.6886 37.1935H52.2922C52.7082 37.1935 53.0461 37.5308 53.0461 37.9474C53.0461 38.364 52.7082 38.7018 52.2922 38.7018Z"/>
</mask>
<path d="M52.2922 38.7018H27.6886C27.272 38.7018 26.9347 38.364 26.9347 37.9474C26.9347 37.5308 27.272 37.1935 27.6886 37.1935H52.2922C52.7082 37.1935 53.0461 37.5308 53.0461 37.9474C53.0461 38.364 52.7082 38.7018 52.2922 38.7018Z" fill="white"/>
<path d="M52.2922 38.7018H27.6886C27.272 38.7018 26.9347 38.364 26.9347 37.9474C26.9347 37.5308 27.272 37.1935 27.6886 37.1935H52.2922C52.7082 37.1935 53.0461 37.5308 53.0461 37.9474C53.0461 38.364 52.7082 38.7018 52.2922 38.7018Z" stroke="white" mask="url(#path-8-outside-6_527_1063)"/>
<mask id="path-9-outside-7_527_1063" maskUnits="userSpaceOnUse" x="25.9347" y="41.941" width="28" height="4" fill="black">
<rect fill="white" x="25.9347" y="41.941" width="28" height="4"/>
<path d="M52.2922 44.4488H27.6886C27.272 44.4488 26.9347 44.1115 26.9347 43.6949C26.9347 43.2783 27.272 42.941 27.6886 42.941H52.2922C52.7082 42.941 53.0461 43.2783 53.0461 43.6949C53.0461 44.1115 52.7082 44.4488 52.2922 44.4488Z"/>
</mask>
<path d="M52.2922 44.4488H27.6886C27.272 44.4488 26.9347 44.1115 26.9347 43.6949C26.9347 43.2783 27.272 42.941 27.6886 42.941H52.2922C52.7082 42.941 53.0461 43.2783 53.0461 43.6949C53.0461 44.1115 52.7082 44.4488 52.2922 44.4488Z" fill="white"/>
<path d="M52.2922 44.4488H27.6886C27.272 44.4488 26.9347 44.1115 26.9347 43.6949C26.9347 43.2783 27.272 42.941 27.6886 42.941H52.2922C52.7082 42.941 53.0461 43.2783 53.0461 43.6949C53.0461 44.1115 52.7082 44.4488 52.2922 44.4488Z" stroke="white" mask="url(#path-9-outside-7_527_1063)"/>
<mask id="path-10-outside-8_527_1063" maskUnits="userSpaceOnUse" x="6.95361" y="52.0419" width="16" height="16" fill="black">
<rect fill="white" x="6.95361" y="52.0419" width="16" height="16"/>
<path d="M15.1373 67.4098C13.232 67.4098 11.4049 66.653 10.0573 65.3055C8.71037 63.9585 7.95361 62.1308 7.95361 60.2255C7.95361 58.3203 8.7104 56.4932 10.0573 55.1462C11.4048 53.7987 13.232 53.0419 15.1373 53.0419C17.0425 53.0419 18.8696 53.7987 20.2172 55.1462C21.5642 56.4931 22.3209 58.3203 22.3209 60.2255C22.3192 62.1302 21.5618 63.9567 20.2148 65.3031C18.8679 66.6501 17.0419 67.4074 15.1373 67.4098V67.4098ZM15.1373 54.5503C13.6318 54.5503 12.1883 55.148 11.1242 56.2126C10.0596 57.2772 9.46129 58.7208 9.46129 60.2257C9.46129 61.7311 10.0595 63.1747 11.1242 64.2393C12.1882 65.3039 13.6318 65.9017 15.1373 65.9017C16.6427 65.9017 18.0863 65.304 19.1509 64.2393C20.2149 63.1748 20.8132 61.7311 20.8132 60.2257C20.8115 58.7214 20.2132 57.2785 19.1493 56.2144C18.0853 55.1504 16.6423 54.5515 15.1374 54.5505L15.1373 54.5503Z"/>
</mask>
<path d="M15.1373 67.4098C13.232 67.4098 11.4049 66.653 10.0573 65.3055C8.71037 63.9585 7.95361 62.1308 7.95361 60.2255C7.95361 58.3203 8.7104 56.4932 10.0573 55.1462C11.4048 53.7987 13.232 53.0419 15.1373 53.0419C17.0425 53.0419 18.8696 53.7987 20.2172 55.1462C21.5642 56.4931 22.3209 58.3203 22.3209 60.2255C22.3192 62.1302 21.5618 63.9567 20.2148 65.3031C18.8679 66.6501 17.0419 67.4074 15.1373 67.4098V67.4098ZM15.1373 54.5503C13.6318 54.5503 12.1883 55.148 11.1242 56.2126C10.0596 57.2772 9.46129 58.7208 9.46129 60.2257C9.46129 61.7311 10.0595 63.1747 11.1242 64.2393C12.1882 65.3039 13.6318 65.9017 15.1373 65.9017C16.6427 65.9017 18.0863 65.304 19.1509 64.2393C20.2149 63.1748 20.8132 61.7311 20.8132 60.2257C20.8115 58.7214 20.2132 57.2785 19.1493 56.2144C18.0853 55.1504 16.6423 54.5515 15.1374 54.5505L15.1373 54.5503Z" fill="white"/>
<path d="M15.1373 67.4098C13.232 67.4098 11.4049 66.653 10.0573 65.3055C8.71037 63.9585 7.95361 62.1308 7.95361 60.2255C7.95361 58.3203 8.7104 56.4932 10.0573 55.1462C11.4048 53.7987 13.232 53.0419 15.1373 53.0419C17.0425 53.0419 18.8696 53.7987 20.2172 55.1462C21.5642 56.4931 22.3209 58.3203 22.3209 60.2255C22.3192 62.1302 21.5618 63.9567 20.2148 65.3031C18.8679 66.6501 17.0419 67.4074 15.1373 67.4098V67.4098ZM15.1373 54.5503C13.6318 54.5503 12.1883 55.148 11.1242 56.2126C10.0596 57.2772 9.46129 58.7208 9.46129 60.2257C9.46129 61.7311 10.0595 63.1747 11.1242 64.2393C12.1882 65.3039 13.6318 65.9017 15.1373 65.9017C16.6427 65.9017 18.0863 65.304 19.1509 64.2393C20.2149 63.1748 20.8132 61.7311 20.8132 60.2257C20.8115 58.7214 20.2132 57.2785 19.1493 56.2144C18.0853 55.1504 16.6423 54.5515 15.1374 54.5505L15.1373 54.5503Z" stroke="white" stroke-width="0.8" mask="url(#path-10-outside-8_527_1063)"/>
<path d="M14.2486 62.6049C14.0484 62.6049 13.8569 62.5256 13.7151 62.3839L12.2392 60.9079L12.2397 60.9085C11.9545 60.6123 11.9591 60.1419 12.2502 59.8514C12.5418 59.561 13.0121 59.5575 13.3072 59.8439L14.2497 60.7864L16.969 58.0665C17.2647 57.7726 17.7426 57.7738 18.0365 58.0689C18.3304 58.3645 18.3292 58.8424 18.0336 59.1363L14.7814 62.3891V62.3897C14.6391 62.5291 14.4475 62.6067 14.2485 62.6049L14.2486 62.6049Z" fill="white"/>
<mask id="path-12-outside-9_527_1063" maskUnits="userSpaceOnUse" x="25.9347" y="55.5982" width="28" height="4" fill="black">
<rect fill="white" x="25.9347" y="55.5982" width="28" height="4"/>
<path d="M52.2922 58.1066H27.6886C27.272 58.1066 26.9347 57.7687 26.9347 57.3521C26.9347 56.9361 27.272 56.5982 27.6886 56.5982H52.2922C52.7082 56.5982 53.0461 56.9361 53.0461 57.3521C53.0461 57.7687 52.7082 58.1066 52.2922 58.1066Z"/>
</mask>
<path d="M52.2922 58.1066H27.6886C27.272 58.1066 26.9347 57.7687 26.9347 57.3521C26.9347 56.9361 27.272 56.5982 27.6886 56.5982H52.2922C52.7082 56.5982 53.0461 56.9361 53.0461 57.3521C53.0461 57.7687 52.7082 58.1066 52.2922 58.1066Z" fill="white"/>
<path d="M52.2922 58.1066H27.6886C27.272 58.1066 26.9347 57.7687 26.9347 57.3521C26.9347 56.9361 27.272 56.5982 27.6886 56.5982H52.2922C52.7082 56.5982 53.0461 56.9361 53.0461 57.3521C53.0461 57.7687 52.7082 58.1066 52.2922 58.1066Z" stroke="white" mask="url(#path-12-outside-9_527_1063)"/>
<mask id="path-13-outside-10_527_1063" maskUnits="userSpaceOnUse" x="25.9347" y="61.3466" width="28" height="4" fill="black">
<rect fill="white" x="25.9347" y="61.3466" width="28" height="4"/>
<path d="M52.2922 63.855H27.6886C27.272 63.855 26.9347 63.5171 26.9347 63.1005C26.9347 62.6839 27.272 62.3466 27.6886 62.3466H52.2922C52.7082 62.3466 53.0461 62.6839 53.0461 63.1005C53.0461 63.5171 52.7082 63.855 52.2922 63.855Z"/>
</mask>
<path d="M52.2922 63.855H27.6886C27.272 63.855 26.9347 63.5171 26.9347 63.1005C26.9347 62.6839 27.272 62.3466 27.6886 62.3466H52.2922C52.7082 62.3466 53.0461 62.6839 53.0461 63.1005C53.0461 63.5171 52.7082 63.855 52.2922 63.855Z" fill="white"/>
<path d="M52.2922 63.855H27.6886C27.272 63.855 26.9347 63.5171 26.9347 63.1005C26.9347 62.6839 27.272 62.3466 27.6886 62.3466H52.2922C52.7082 62.3466 53.0461 62.6839 53.0461 63.1005C53.0461 63.5171 52.7082 63.855 52.2922 63.855Z" stroke="white" mask="url(#path-13-outside-10_527_1063)"/>
<mask id="path-14-outside-11_527_1063" maskUnits="userSpaceOnUse" x="14.6184" y="0" width="31" height="11" fill="black">
<rect fill="white" x="14.6184" width="31" height="11"/>
<path d="M42.0693 10.1148H18.0507C17.4056 10.1142 16.7871 9.85788 16.3312 9.40139C15.8753 8.94547 15.619 8.32696 15.6184 7.6825V3.43229C15.619 2.78775 15.8753 2.16926 16.3312 1.71281C16.7871 1.25689 17.4056 1.00058 18.0507 1H42.0693C42.7144 1.00058 43.3323 1.25747 43.7882 1.71339C44.244 2.16931 44.5004 2.78781 44.501 3.43228V7.68248C44.5004 8.32702 44.2441 8.94551 43.7882 9.40137C43.3322 9.85723 42.7143 10.1136 42.0693 10.1148V10.1148ZM18.0507 2.50766C17.5404 2.50824 17.1267 2.92193 17.1261 3.43223V7.68244C17.1267 8.19274 17.5404 8.60643 18.0507 8.60643H42.0693C42.5796 8.60585 42.9927 8.19216 42.9933 7.68244V3.43223C42.9927 2.92251 42.5796 2.50882 42.0693 2.50766H18.0507Z"/>
</mask>
<path d="M42.0693 10.1148H18.0507C17.4056 10.1142 16.7871 9.85788 16.3312 9.40139C15.8753 8.94547 15.619 8.32696 15.6184 7.6825V3.43229C15.619 2.78775 15.8753 2.16926 16.3312 1.71281C16.7871 1.25689 17.4056 1.00058 18.0507 1H42.0693C42.7144 1.00058 43.3323 1.25747 43.7882 1.71339C44.244 2.16931 44.5004 2.78781 44.501 3.43228V7.68248C44.5004 8.32702 44.2441 8.94551 43.7882 9.40137C43.3322 9.85723 42.7143 10.1136 42.0693 10.1148V10.1148ZM18.0507 2.50766C17.5404 2.50824 17.1267 2.92193 17.1261 3.43223V7.68244C17.1267 8.19274 17.5404 8.60643 18.0507 8.60643H42.0693C42.5796 8.60585 42.9927 8.19216 42.9933 7.68244V3.43223C42.9927 2.92251 42.5796 2.50882 42.0693 2.50766H18.0507Z" fill="white"/>
<path d="M42.0693 10.1148H18.0507C17.4056 10.1142 16.7871 9.85788 16.3312 9.40139C15.8753 8.94547 15.619 8.32696 15.6184 7.6825V3.43229C15.619 2.78775 15.8753 2.16926 16.3312 1.71281C16.7871 1.25689 17.4056 1.00058 18.0507 1H42.0693C42.7144 1.00058 43.3323 1.25747 43.7882 1.71339C44.244 2.16931 44.5004 2.78781 44.501 3.43228V7.68248C44.5004 8.32702 44.2441 8.94551 43.7882 9.40137C43.3322 9.85723 42.7143 10.1136 42.0693 10.1148V10.1148ZM18.0507 2.50766C17.5404 2.50824 17.1267 2.92193 17.1261 3.43223V7.68244C17.1267 8.19274 17.5404 8.60643 18.0507 8.60643H42.0693C42.5796 8.60585 42.9927 8.19216 42.9933 7.68244V3.43223C42.9927 2.92251 42.5796 2.50882 42.0693 2.50766H18.0507Z" stroke="white" mask="url(#path-14-outside-11_527_1063)"/>
</svg>
