<svg width="62" height="62" viewBox="0 0 62 62" fill="none" xmlns="http://www.w3.org/2000/svg">
<path d="M60.2779 17.2228H44.7772V1.72214C44.7772 1.26544 44.5959 0.82724 44.273 0.504276C43.95 0.181313 43.5118 0 43.0551 0H1.72219C0.770745 0 0 0.770677 0 1.72219V43.0551C0 43.5118 0.181299 43.95 0.504276 44.273C0.82724 44.5959 1.26544 44.7772 1.72214 44.7772H17.2228V60.2779C17.2228 60.7346 17.4041 61.1728 17.7271 61.4958C18.0501 61.8187 18.4883 62.0001 18.945 62.0001H60.2779C60.7346 62.0001 61.1728 61.8188 61.4957 61.4958C61.8187 61.1728 62 60.7346 62 60.2779V18.945C62 18.4883 61.8187 18.0501 61.4957 17.7272C61.1728 17.4042 60.7346 17.2229 60.2779 17.2229L60.2779 17.2228ZM3.44433 3.44474H41.3334V41.3338H3.44433V3.44474ZM58.5553 58.5557H20.6663V44.7776H43.0546C43.5113 44.7776 43.9495 44.5963 44.2725 44.2734C44.5955 43.9504 44.7768 43.5122 44.7768 43.0555V20.6671H58.5549L58.5553 58.5557Z" fill="white"/>
<path d="M18.945 20.668C19.6454 20.6707 20.2786 20.2504 20.5482 19.604C20.8173 18.957 20.6698 18.2117 20.1745 17.7159C19.6792 17.2206 18.9339 17.0731 18.287 17.3427C17.64 17.6118 17.2198 18.245 17.2229 18.946C17.2261 19.4026 17.4048 19.8403 17.7219 20.1686C18.0523 20.4831 18.4889 20.6612 18.9451 20.6681L18.945 20.668Z" fill="white"/>
<path d="M20.6675 36.1673V34.4448C20.6675 33.4938 19.8963 32.7226 18.9453 32.7226C17.9939 32.7226 17.2231 33.4938 17.2231 34.4448V36.1673C17.2231 37.1183 17.9938 37.8895 18.9453 37.8895C19.8963 37.8895 20.6675 37.1183 20.6675 36.1673Z" fill="white"/>
<path d="M18.945 29.2783C19.4017 29.2783 19.8399 29.097 20.1629 28.774C20.4859 28.4505 20.6672 28.0129 20.6672 27.5562V25.8336C20.6672 24.8827 19.896 24.1114 18.945 24.1114C17.9935 24.1114 17.2228 24.8826 17.2228 25.8336V27.5562C17.2228 28.0129 17.4041 28.4505 17.7271 28.774C18.05 29.097 18.4882 29.2783 18.9449 29.2783H18.945Z" fill="white"/>
<path d="M25.834 20.668H27.5566C28.5075 20.668 29.2788 19.8968 29.2788 18.9458C29.2788 17.9944 28.5076 17.2236 27.5566 17.2236H25.834C24.8831 17.2236 24.1118 17.9943 24.1118 18.9458C24.1118 19.8967 24.883 20.668 25.834 20.668Z" fill="white"/>
<path d="M34.4444 20.668H36.167C37.1179 20.668 37.8892 19.8968 37.8892 18.9458C37.8892 17.9944 37.1179 17.2236 36.167 17.2236H34.4444C33.4934 17.2236 32.7222 17.9943 32.7222 18.9458C32.7222 19.8967 33.4934 20.668 34.4444 20.668Z" fill="white"/>
</svg>
