<svg width="12" height="12" viewBox="0 0 12 12" fill="none" xmlns="http://www.w3.org/2000/svg">
<path d="M6 0.96C8.7792 0.96 11.04 3.2208 11.04 6C11.04 8.7792 8.7792 11.04 6 11.04C3.2208 11.04 0.96 8.7792 0.96 6C0.96 3.2208 3.2208 0.96 6 0.96ZM6 0C2.688 0 0 2.688 0 6C0 9.312 2.688 12 6 12C9.312 12 12 9.312 12 6C12 2.688 9.312 0 6 0Z" fill="currentColor"/>
<path d="M6.57583 9.00006H5.42383V7.98246V5.66406H6.57583V9.00006Z" fill="currentColor"/>
<path d="M6.0001 4.4211C6.52332 4.4211 6.94747 3.99695 6.94747 3.47374C6.94747 2.95052 6.52332 2.52637 6.0001 2.52637C5.47689 2.52637 5.05273 2.95052 5.05273 3.47374C5.05273 3.99695 5.47689 4.4211 6.0001 4.4211Z" fill="currentColor"/>
</svg>
