<svg width="16" height="16" viewBox="0 0 16 16" fill="none" xmlns="http://www.w3.org/2000/svg">
<path d="M15.6819 10.2658L14.8487 9.82617L13.277 10.6547L12.8046 10.904L12.3321 11.1532L8.6182 13.1128C8.42751 13.2136 8.215 13.2663 7.99921 13.2663C7.78342 13.2663 7.57091 13.2136 7.38022 13.1128L3.66628 11.1532L3.19387 10.904L2.72146 10.6547L1.1497 9.82617L0.317549 10.2658C0.246534 10.3033 0.187098 10.3593 0.14564 10.428C0.104183 10.4967 0.0822754 10.5753 0.0822754 10.6555C0.0822754 10.7357 0.104183 10.8143 0.14564 10.883C0.187098 10.9516 0.246534 11.0077 0.317549 11.0452L1.15058 11.4846L1.62299 11.7339L2.0954 11.9832L7.79364 14.9897C7.8572 15.0233 7.92806 15.0409 8 15.0409C8.07195 15.0409 8.1428 15.0233 8.20636 14.9897L13.9046 11.9832L14.377 11.7339L14.8494 11.4846L15.6826 11.045C15.7536 11.0075 15.813 10.9515 15.8544 10.8828C15.8959 10.8142 15.9177 10.7355 15.9177 10.6554C15.9177 10.5753 15.8959 10.4967 15.8544 10.428C15.813 10.3594 15.7536 10.3033 15.6826 10.2658H15.6819Z" fill="currentColor"/>
<path d="M15.6819 7.61055L14.8487 7.1709L13.2769 7.99943L12.8045 8.2487L12.3326 8.49937L10.7609 9.3279L10.2885 9.57717L9.81605 9.82643L8.61851 10.4582C8.42782 10.5591 8.21531 10.6118 7.99952 10.6118C7.78373 10.6118 7.57122 10.5591 7.38053 10.4582L6.18281 9.82643L5.71058 9.57717L5.23835 9.3279L3.66659 8.49937L3.19435 8.2494L2.72194 8.00014L1.15018 7.1716L0.317504 7.61055C0.246534 7.64801 0.18714 7.70408 0.145714 7.77273C0.104288 7.84138 0.0823975 7.92 0.0823975 8.00014C0.0823975 8.08027 0.104288 8.1589 0.145714 8.22754C0.18714 8.29619 0.246534 8.35226 0.317504 8.38972L1.15071 8.82937L1.62312 9.07864L2.09518 9.3279L3.66694 10.1564L4.13935 10.4057L4.61158 10.655L7.7936 12.3339C7.85717 12.3674 7.92798 12.3849 7.99987 12.3849C8.07177 12.3849 8.14258 12.3674 8.20614 12.3339L11.388 10.655L11.8604 10.4057L12.3328 10.1564L13.9046 9.3279L14.377 9.07864L14.8494 8.82937L15.6819 8.38972C15.7529 8.35226 15.8123 8.29619 15.8537 8.22754C15.8951 8.1589 15.917 8.08027 15.917 8.00014C15.917 7.92 15.8951 7.84138 15.8537 7.77273C15.8123 7.70408 15.7529 7.64801 15.6819 7.61055Z" fill="currentColor"/>
<path d="M0.317549 5.73413L1.15076 6.17378L1.62299 6.42287L2.0954 6.67213L3.66716 7.50066L4.1394 7.74993L4.61181 7.99919L6.18357 8.82773L6.65598 9.07699L7.12839 9.32626L7.794 9.67741C7.85757 9.71094 7.92838 9.72847 8.00027 9.72847C8.07217 9.72847 8.14297 9.71094 8.20654 9.67741L8.87198 9.32626L9.34439 9.07699L9.8168 8.82773L11.3886 7.99919L11.861 7.74993L12.3334 7.50066L13.9051 6.67213L14.3775 6.42287L14.85 6.1736L15.6819 5.73413C15.7529 5.69668 15.8124 5.6406 15.8538 5.57194C15.8953 5.50328 15.9172 5.42462 15.9172 5.34445C15.9172 5.26428 15.8953 5.18563 15.8538 5.11697C15.8124 5.0483 15.7529 4.99223 15.6819 4.95478L8.20601 1.01009C8.14242 0.976526 8.07158 0.958984 7.99965 0.958984C7.92772 0.958984 7.85688 0.976526 7.79329 1.01009L0.317549 4.95478C0.246535 4.99223 0.187098 5.0483 0.14564 5.11697C0.104183 5.18563 0.0822754 5.26428 0.0822754 5.34445C0.0822754 5.42462 0.104183 5.50328 0.14564 5.57194C0.187098 5.6406 0.246535 5.69668 0.317549 5.73413Z" fill="currentColor"/>
</svg>
