<svg width="25" height="25" viewBox="0 0 25 25" fill="none" xmlns="http://www.w3.org/2000/svg">
<path fill-rule="evenodd" clip-rule="evenodd" d="M1.84766 0C0.827539 0 0 0.802035 0 1.79013V23.2008C0 24.189 0.827637 24.9904 1.84766 24.9904H23.1523C24.1729 24.9904 25 24.1889 25 23.2005V1.79013C25 0.802035 24.1729 0 23.1523 0H1.84766ZM7.59824 9.66276V20.9135H3.85723V9.66276H7.59824ZM7.84483 6.18333C7.84483 7.263 7.03281 8.12692 5.72852 8.12692L5.72822 8.12683H5.704C4.44844 8.12683 3.63672 7.2629 3.63672 6.18324C3.63672 5.07907 4.47295 4.23926 5.75332 4.23926C7.03281 4.23926 7.82041 5.07907 7.84483 6.18333ZM13.4097 20.9135H9.66895L9.66885 20.9139C9.66885 20.9139 9.71797 10.7186 9.66914 9.66315H13.41V11.2556C13.9072 10.4892 14.7972 9.39899 16.7815 9.39899C19.2428 9.39899 21.0881 11.0071 21.0881 14.4627V20.9135H17.3475V14.8953C17.3475 13.3827 16.8058 12.3511 15.4524 12.3511C14.4188 12.3511 13.8032 13.0468 13.5329 13.7189C13.4341 13.9588 13.4097 14.2954 13.4097 14.6313V20.9135Z" fill="white"/>
</svg>
